<?xml version="1.0" encoding="UTF-8"?>
<svg width="83px" height="20px" viewBox="0 0 83 20" version="1.1" xmlns="http://www.w3.org/2000/svg" xmlns:xlink="http://www.w3.org/1999/xlink">
    <!-- Generator: Sketch 60 (88103) - https://sketch.com -->
    <title>voxoshape</title>
    <desc>Created with Sketch.</desc>
    <g id="Refresh" stroke="none" stroke-width="1" fill="none" fill-rule="evenodd" fill-opacity="0.497077142">
        <g id="Artboard" transform="translate(-9.000000, -315.000000)" fill="#8898A9">
            <g id="voxoshape" transform="translate(9.000000, 315.000000)">
                <path d="M0,0.867045455 L5.39031896,0.867045455 L10.8137775,12.6340909 L16.2383787,0.867045455 L21.5772742,0.867045455 L12.3519096,19.2363636 L9.27678806,19.2363636 L0.0159984027,0.746590909 L0,0.867045455 Z M22.2653012,16.9659091 C20.5580431,15.2159091 19.5272889,12.5988636 19.5272889,10 C19.5272889,7.40113636 20.5580431,4.78409091 22.2653012,3.03409091 C24.1393998,1.11022727 27.0796777,0 30.3422091,0 C33.5864566,0 36.5427328,1.11022727 38.4191169,3.03409091 C40.1252323,4.78409091 41.1559865,7.40113636 41.1559865,10 C41.1559865,12.5988636 40.1252323,15.2159091 38.4191169,16.9659091 C36.5267344,18.9068182 33.5853138,20 30.3422091,20 C27.0968188,20 24.1405425,18.8897727 22.2653012,16.9659091 Z M26.2694728,5.70227273 C25.1712968,6.82840909 24.6136382,8.28409091 24.6136382,10.0170455 C24.6136382,11.75 25.1712968,13.1875 26.2706156,14.3318182 C27.3505078,15.4409091 28.7195139,15.9954545 30.3753486,15.9954545 C31.9466203,15.9954545 33.3499088,15.4238636 34.3978041,14.3318182 C35.4948375,13.2068182 36.0536388,11.75 36.0536388,10.0170455 C36.0536388,8.28409091 35.4959802,6.84659091 34.3966614,5.70227273 C33.3327676,4.59318182 31.9637614,4.03863636 30.3422091,4.03863636 C28.7195139,4.03863636 27.3505078,4.59318182 26.2694728,5.70227273 Z M56.7808079,19.2363636 L51.0865193,12.3386364 L45.3910879,19.2363636 L39.1402834,19.2363636 L48.0788196,9.15113636 L40.9138206,0.867045455 L47.0812049,0.867045455 L51.0865193,5.94545455 L55.0746925,0.867045455 L61.2580751,0.867045455 L54.0930762,9.15113636 L63.0327551,19.2363636 L56.7808079,19.2363636 Z M64.1081719,16.9659091 C62.4020566,15.2159091 61.3713023,12.5988636 61.3713023,10 C61.3713023,7.40113636 62.4020566,4.78409091 64.1081719,3.03409091 C65.9834133,1.11022727 68.9236911,0 72.1850798,0 C75.4304701,0 78.3867463,1.11022727 80.2619877,3.03409091 C81.9692458,4.78409091 83,7.40113636 83,10 C83,12.5988636 81.9692458,15.2159091 80.2619877,16.9659091 C78.3867463,18.9068182 75.4464685,20 72.1850798,20 C68.9408323,20 65.9834133,18.8897727 64.1081719,16.9659091 Z M68.1123436,5.70227273 C67.0153102,6.82840909 66.4565089,8.28409091 66.4565089,10.0170455 C66.4565089,11.75 67.0141675,13.1875 68.1134863,14.3318182 C69.1945212,15.4409091 70.5635274,15.9954545 72.2193621,15.9954545 C73.7906338,15.9954545 75.1927795,15.4238636 76.2406749,14.3318182 C77.3388509,13.2068182 77.8965095,11.75 77.8965095,10.0170455 C77.8965095,8.28409091 77.3388509,6.84659091 76.2395321,5.70227273 C75.1927795,4.59318182 73.8237733,4.03863636 72.1850798,4.03863636 C70.5623847,4.03863636 69.1945212,4.59318182 68.1123436,5.70227273 Z" id="Shape"></path>
            </g>
        </g>
    </g>
</svg>