<?xml version="1.0" encoding="UTF-8"?>
<svg width="182px" height="45px" viewBox="0 0 182 45" version="1.1" xmlns="http://www.w3.org/2000/svg" xmlns:xlink="http://www.w3.org/1999/xlink">
    <!-- Generator: Sketch 52.4 (67378) - http://www.bohemiancoding.com/sketch -->
    <title>voxo</title>
    <desc>Created with Sketch.</desc>
    <g id="Refresh" stroke="none" stroke-width="1" fill="none" fill-rule="evenodd">
        <g id="wide" transform="translate(-225.000000, -439.000000)" fill="#32325D">
            <g id="Group-2" transform="translate(157.000000, 439.000000)">
                <g id="voxo" transform="translate(68.877551, 0.364431)">
                    <path d="M0,1.91399398 L11.7627442,1.91399398 L23.5978055,27.8896266 L35.4353605,1.91399398 L47.0858886,1.91399398 L26.9543147,42.4640762 L20.24379,42.4640762 L0.0349116852,1.6480918 L0,1.91399398 Z M48.5872998,37.452071 C44.8617242,33.5889638 42.6124142,27.8118627 42.6124142,22.0748978 C42.6124142,16.3379329 44.8617242,10.5608318 48.5872998,6.69772468 C52.6769543,2.45081536 59.0932233,0 66.2127134,0 C73.2923044,0 79.7434851,2.45081536 83.838127,6.69772468 C87.5612089,10.5608318 89.8105189,16.3379329 89.8105189,22.0748978 C89.8105189,27.8118627 87.5612089,33.5889638 83.838127,37.452071 C79.7085734,41.7366079 73.2898107,44.1497956 66.2127134,44.1497956 C59.1306287,44.1497956 52.679448,41.6989803 48.5872998,37.452071 Z M57.3251958,12.5877088 C54.928758,15.0736433 53.7118364,18.287046 53.7118364,22.1125255 C53.7118364,25.9380049 54.928758,29.1112715 57.3276895,31.6373422 C59.6842283,34.085649 62.671671,35.3098025 66.2850305,35.3098025 C69.7138567,35.3098025 72.7761102,34.0480214 75.0628256,31.6373422 C77.4567697,29.1539162 78.676185,25.9380049 78.676185,22.1125255 C78.676185,18.287046 77.4592634,15.1137795 75.0603319,12.5877088 C72.7387048,10.1394019 69.7512621,8.9152485 66.2127134,8.9152485 C62.671671,8.9152485 59.6842283,10.1394019 57.3251958,12.5877088 Z M123.906976,42.4640762 L111.480909,27.2374137 L99.0523494,42.4640762 L85.4118553,42.4640762 L104.917513,20.20104 L89.282065,1.91399398 L102.74052,1.91399398 L111.480909,13.1245302 L120.183894,1.91399398 L133.67726,1.91399398 L118.041812,20.20104 L137.549963,42.4640762 L123.906976,42.4640762 Z M139.896736,37.452071 C136.173654,33.5889638 133.924344,27.8118627 133.924344,22.0748978 C133.924344,16.3379329 136.173654,10.5608318 139.896736,6.69772468 C143.988884,2.45081536 150.405153,0 157.52215,0 C164.604234,0 171.055415,2.45081536 175.147563,6.69772468 C178.873139,10.5608318 181.122449,16.3379329 181.122449,22.0748978 C181.122449,27.8118627 178.873139,33.5889638 175.147563,37.452071 C171.055415,41.7366079 164.639146,44.1497956 157.52215,44.1497956 C150.442559,44.1497956 143.988884,41.6989803 139.896736,37.452071 Z M148.634632,12.5877088 C146.240688,15.0736433 145.021273,18.287046 145.021273,22.1125255 C145.021273,25.9380049 146.238194,29.1112715 148.637126,31.6373422 C150.996158,34.085649 153.983601,35.3098025 157.596961,35.3098025 C161.025787,35.3098025 164.085547,34.0480214 166.372262,31.6373422 C168.7687,29.1539162 169.985621,25.9380049 169.985621,22.1125255 C169.985621,18.287046 168.7687,15.1137795 166.369768,12.5877088 C164.085547,10.1394019 161.098104,8.9152485 157.52215,8.9152485 C153.981107,8.9152485 150.996158,10.1394019 148.634632,12.5877088 Z" id="Shape"></path>
                </g>
            </g>
        </g>
    </g>
</svg>